<svg width="200" height="200" viewBox="0 0 200 200" xmlns="http://www.w3.org/2000/svg">
  <title>SkyPlanner icono</title>
  <rect width="200" height="200" rx="40" fill="#0a1f45"/>
  <path d="M100,20 L50,155 Q70,162 85,148 Q94,136 97,100 Z" fill="white"/>
  <path d="M100,20 L150,155 Q130,162 115,148 Q106,136 103,100 Z" fill="#d0ddf0"/>
  <path d="M50,155 Q58,175 72,170 Q83,155 97,100 Q82,128 60,145 Z" fill="#c0ccdf"/>
  <path d="M150,155 Q142,175 128,170 Q117,155 103,100 Q118,128 140,145 Z" fill="#b0bcd0"/>
  <rect x="98" y="52" width="4" height="68" rx="2" fill="#0a1f45"/>
  <ellipse cx="100" cy="50" rx="2.5" ry="5" fill="#0a1f45"/>
  <path d="M100,96 L72,111 L72,116 L100,103 L128,116 L128,111 Z" fill="#0a1f45"/>
  <path d="M100,108 L88,116 L88,120 L100,115 L112,120 L112,116 Z" fill="#0a1f45"/>
</svg>
