<svg width="680" height="420" viewBox="0 0 680 420" xmlns="http://www.w3.org/2000/svg">
  <title>SkyPlanner modo noche</title>
  <defs>
    <linearGradient id="nG1" x1="0" y1="0" x2="0" y2="1"><stop offset="0%" stop-color="#3a6abf"/><stop offset="100%" stop-color="#1a3a7e"/></linearGradient>
    <linearGradient id="nG2" x1="0" y1="0" x2="0" y2="1"><stop offset="0%" stop-color="#2a50a0"/><stop offset="100%" stop-color="#0f2560"/></linearGradient>
  </defs>
  <path d="M340,40 L240,300 Q280,310 310,280 Q328,260 334,200 Z" fill="url(#nG1)"/>
  <path d="M340,40 L440,300 Q400,310 370,280 Q352,260 346,200 Z" fill="url(#nG2)"/>
  <path d="M240,300 Q260,340 290,330 Q310,300 334,200 Q310,260 270,290 Z" fill="#1a3a7e"/>
  <path d="M440,300 Q420,340 390,330 Q370,300 346,200 Q370,260 410,290 Z" fill="#0f2560"/>
  <rect x="337.5" y="100" width="5" height="110" rx="2.5" fill="white"/>
  <ellipse cx="340" cy="98" rx="3" ry="6" fill="white"/>
  <path d="M340,160 L295,185 L295,193 L340,172 L385,193 L385,185 Z" fill="white"/>
  <path d="M340,185 L322,197 L322,202 L340,194 L358,202 L358,197 Z" fill="white"/>
  <line x1="260" y1="350" x2="420" y2="350" stroke="#3a6abf" stroke-width="1"/>
  <text x="340" y="382" text-anchor="middle" font-family="Georgia,serif" font-size="26" font-weight="500" fill="white" letter-spacing="8">SkyPlanner</text>
  <text x="340" y="403" text-anchor="middle" font-family="Georgia,serif" font-size="11" fill="#7aaae0" letter-spacing="4">YOUR SKY, YOUR WAY</text>
</svg>
